<?xml version="1.0" encoding="UTF-8"?>
<svg xmlns="http://www.w3.org/2000/svg" xmlns:xlink="http://www.w3.org/1999/xlink" width="120px" height="16px" viewBox="0 0 120 16" version="1.1">
<defs>
<linearGradient id="linear0" gradientUnits="userSpaceOnUse" x1="0" y1="17.76" x2="273.42" y2="17.76" gradientTransform="matrix(0.438885,0,0,0.443762,0,0.118792)">
<stop offset="0" style="stop-color:rgb(56.470588%,80.784314%,63.137255%);stop-opacity:1;"/>
<stop offset="0.56" style="stop-color:rgb(23.529412%,74.509804%,78.823529%);stop-opacity:1;"/>
<stop offset="1" style="stop-color:rgb(0%,70.196078%,89.803922%);stop-opacity:1;"/>
</linearGradient>
</defs>
<g id="surface1">
<path style=" stroke:none;fill-rule:nonzero;fill:url(#linear0);" d="M 84.199219 15.816406 L 112.246094 15.816406 C 116.527344 15.816406 120 12.304688 120 7.972656 C 120.003906 5.890625 119.1875 3.894531 117.734375 2.421875 C 116.277344 0.945312 114.304688 0.117188 112.246094 0.117188 L 84.199219 0.117188 C 82.140625 0.117188 80.167969 0.945312 78.710938 2.421875 C 77.257812 3.894531 76.441406 5.890625 76.445312 7.972656 C 76.445312 12.304688 79.917969 15.816406 84.199219 15.816406 Z M 4.433594 15.835938 L 7.855469 15.835938 L 7.855469 3.191406 L 12.289062 3.191406 L 12.289062 0.117188 L 0 0.117188 L 0 3.179688 L 4.433594 3.179688 Z M 16.765625 15.835938 L 20.1875 15.835938 L 20.1875 3.78125 L 20.234375 3.78125 L 24.160156 15.828125 L 26.792969 15.828125 L 30.855469 3.78125 L 30.898438 3.78125 L 30.898438 15.828125 L 34.320312 15.828125 L 34.320312 0.117188 L 29.164062 0.117188 L 25.566406 10.371094 L 25.519531 10.371094 L 21.945312 0.117188 L 16.765625 0.117188 Z M 39.121094 0.171875 L 44.257812 0.171875 C 45.453125 0.175781 46.644531 0.324219 47.804688 0.617188 C 48.859375 0.871094 49.855469 1.332031 50.730469 1.984375 C 51.578125 2.625 52.257812 3.464844 52.71875 4.433594 C 53.238281 5.578125 53.488281 6.832031 53.453125 8.09375 C 53.476562 9.253906 53.230469 10.40625 52.742188 11.457031 C 52.285156 12.402344 51.628906 13.234375 50.820312 13.898438 C 49.992188 14.570312 49.046875 15.074219 48.03125 15.394531 C 46.960938 15.738281 45.84375 15.910156 44.71875 15.902344 L 39.121094 15.902344 Z M 42.546875 12.6875 L 44.300781 12.6875 C 45.039062 12.691406 45.777344 12.609375 46.496094 12.441406 C 47.136719 12.308594 47.746094 12.042969 48.277344 11.65625 C 48.785156 11.269531 49.191406 10.757812 49.453125 10.171875 C 49.761719 9.460938 49.910156 8.691406 49.890625 7.914062 C 49.90625 7.222656 49.753906 6.535156 49.453125 5.910156 C 49.179688 5.355469 48.785156 4.875 48.300781 4.5 C 47.792969 4.121094 47.222656 3.839844 46.617188 3.667969 C 45.949219 3.480469 45.257812 3.386719 44.5625 3.390625 L 42.546875 3.390625 Z M 58.410156 0.171875 L 64.203125 0.171875 C 64.882812 0.171875 65.5625 0.222656 66.238281 0.320312 C 66.875 0.402344 67.496094 0.597656 68.066406 0.894531 C 68.601562 1.175781 69.054688 1.589844 69.382812 2.101562 C 69.746094 2.726562 69.921875 3.441406 69.886719 4.164062 C 69.917969 4.972656 69.65625 5.757812 69.15625 6.382812 C 68.640625 6.984375 67.964844 7.421875 67.210938 7.636719 L 67.210938 7.664062 C 67.695312 7.734375 68.167969 7.882812 68.605469 8.105469 C 69.011719 8.3125 69.375 8.589844 69.683594 8.925781 C 69.984375 9.265625 70.21875 9.660156 70.371094 10.089844 C 70.535156 10.546875 70.617188 11.027344 70.613281 11.511719 C 70.636719 12.238281 70.457031 12.960938 70.085938 13.585938 C 69.742188 14.132812 69.273438 14.589844 68.726562 14.917969 C 68.148438 15.269531 67.511719 15.515625 66.851562 15.652344 C 66.167969 15.796875 65.472656 15.871094 64.773438 15.871094 L 58.410156 15.871094 Z M 61.835938 6.453125 L 64.3125 6.453125 C 64.578125 6.453125 64.839844 6.421875 65.09375 6.363281 C 65.339844 6.308594 65.574219 6.210938 65.785156 6.074219 C 65.988281 5.941406 66.160156 5.757812 66.28125 5.542969 C 66.410156 5.296875 66.472656 5.019531 66.464844 4.742188 C 66.480469 4.460938 66.410156 4.179688 66.273438 3.933594 C 66.136719 3.726562 65.949219 3.554688 65.730469 3.433594 C 65.488281 3.308594 65.226562 3.222656 64.953125 3.179688 C 64.6875 3.128906 64.414062 3.101562 64.144531 3.101562 L 61.816406 3.101562 Z M 61.835938 12.953125 L 64.90625 12.953125 C 65.175781 12.953125 65.445312 12.921875 65.710938 12.863281 C 65.972656 12.808594 66.222656 12.703125 66.441406 12.554688 C 66.664062 12.40625 66.847656 12.207031 66.984375 11.976562 C 67.125 11.710938 67.199219 11.414062 67.1875 11.109375 C 67.199219 10.792969 67.105469 10.480469 66.917969 10.222656 C 66.734375 9.992188 66.492188 9.8125 66.222656 9.699219 C 65.941406 9.582031 65.648438 9.5 65.34375 9.457031 C 65.046875 9.414062 64.746094 9.390625 64.445312 9.390625 L 61.855469 9.390625 Z M 61.835938 12.953125 "/>
</g>
</svg>
